<svg width="48" height="34" viewBox="0 0 48 34" fill="none" xmlns="http://www.w3.org/2000/svg">
<path d="M14 15.2069C11.8 15.2069 10 13.6862 10 11.8276V10.1379C10 8.27931 11.8 6.75862 14 6.75862C16.2 6.75862 18 8.27931 18 10.1379V11.8276C18 13.6862 16.2 15.2069 14 15.2069ZM10 27.0227L18 27.0345C19.1 27.0345 20 26.2741 20 25.3448V21.9655C20 19.1776 17.3 16.8966 14 16.8966C10.7 16.8966 8 19.1776 8 21.9655V25.3448C8 26.2775 8.896 27.0227 10 27.0227ZM38 27.0345H26C24.894 27.0345 24 26.2792 24 25.3448C24 24.4104 24.894 23.6552 26 23.6552H38C39.106 23.6552 40 24.4104 40 25.3448C40 26.2792 39.106 27.0345 38 27.0345ZM38 20.2759H26C24.894 20.2759 24 19.5189 24 18.5862C24 17.6535 24.894 16.8966 26 16.8966H38C39.106 16.8966 40 17.6535 40 18.5862C40 19.5189 39.106 20.2759 38 20.2759ZM38 13.5172H26C24.894 13.5172 24 12.7603 24 11.8276C24 10.8949 24.894 10.1379 26 10.1379H38C39.106 10.1379 40 10.8949 40 11.8276C40 12.7603 39.106 13.5172 38 13.5172Z" fill="#2D45A7"/>
<path d="M44 0H4C1.8 0 0 1.52069 0 3.37931V30.4138C0 32.2724 1.8 33.7931 4 33.7931H44C46.2 33.7931 48 32.2724 48 30.4138V3.37931C48 1.52069 46.2 0 44 0ZM44 29.569C44 30.0421 43.56 30.4138 43 30.4138H5C4.44 30.4138 4 30.0421 4 29.569V4.22414C4 3.75103 4.44 3.37931 5 3.37931H43C43.56 3.37931 44 3.75103 44 4.22414V29.569Z" fill="#2D45A7"/>
</svg>
