<svg width="49" height="34" viewBox="0 0 49 34" fill="none" xmlns="http://www.w3.org/2000/svg">
<path d="M41.2858 14.5714C38.6068 14.5714 36.4287 12.3933 36.4287 9.71429C36.4287 7.03527 38.6068 4.85714 41.2858 4.85714C43.9648 4.85714 46.143 7.03527 46.143 9.71429C46.143 12.3933 43.9648 14.5714 41.2858 14.5714ZM7.28581 14.5714C4.6068 14.5714 2.42867 12.3933 2.42867 9.71429C2.42867 7.03527 4.6068 4.85714 7.28581 4.85714C9.96483 4.85714 12.143 7.03527 12.143 9.71429C12.143 12.3933 9.96483 14.5714 7.28581 14.5714ZM4.85724 17H9.71439C11.0501 17 12.2568 17.5388 13.1372 18.4116C10.0787 20.0888 7.90813 23.117 7.4376 26.7143H2.42867C1.08537 26.7143 9.91821e-05 25.629 9.91821e-05 24.2857V21.8571C9.91821e-05 19.1781 2.17822 17 4.85724 17ZM24.2858 17C19.588 17 15.7858 13.1978 15.7858 8.5C15.7858 3.80223 19.588 0 24.2858 0C28.9836 0 32.7858 3.80223 32.7858 8.5C32.7858 13.1978 28.9836 17 24.2858 17ZM18.4572 19.4286H19.0872C20.6657 20.1875 22.4189 20.6429 24.2858 20.6429C26.1528 20.6429 27.8983 20.1875 29.4845 19.4286H30.1144C34.9412 19.4286 38.8572 23.3446 38.8572 28.1714V30.3571C38.8572 32.3683 37.2255 34 35.2144 34H13.3572C11.3461 34 9.71439 32.3683 9.71439 30.3571V28.1714C9.71439 23.3446 13.6305 19.4286 18.4572 19.4286ZM35.4345 18.4116C36.3148 17.5388 37.5215 17 38.8572 17H43.7144C46.3934 17 48.5715 19.1781 48.5715 21.8571V24.2857C48.5715 25.629 47.4863 26.7143 46.143 26.7143H41.1416C40.6635 23.117 38.493 20.0888 35.4345 18.4116Z" fill="#FBFBFE"/>
</svg>
