<svg width="49" height="34" viewBox="0 0 49 34" fill="none" xmlns="http://www.w3.org/2000/svg">
<path d="M41.2856 14.5714C38.6066 14.5714 36.4284 12.3933 36.4284 9.71429C36.4284 7.03527 38.6066 4.85714 41.2856 4.85714C43.9646 4.85714 46.1427 7.03527 46.1427 9.71429C46.1427 12.3933 43.9646 14.5714 41.2856 14.5714ZM7.28557 14.5714C4.60655 14.5714 2.42843 12.3933 2.42843 9.71429C2.42843 7.03527 4.60655 4.85714 7.28557 4.85714C9.96459 4.85714 12.1427 7.03527 12.1427 9.71429C12.1427 12.3933 9.96459 14.5714 7.28557 14.5714ZM4.857 17H9.71414C11.0499 17 12.2566 17.5388 13.1369 18.4116C10.0784 20.0888 7.90789 23.117 7.43736 26.7143H2.42843C1.08512 26.7143 -0.000144958 25.629 -0.000144958 24.2857V21.8571C-0.000144958 19.1781 2.17798 17 4.857 17ZM24.2856 17C19.5878 17 15.7856 13.1978 15.7856 8.5C15.7856 3.80223 19.5878 0 24.2856 0C28.9833 0 32.7856 3.80223 32.7856 8.5C32.7856 13.1978 28.9833 17 24.2856 17ZM18.457 19.4286H19.0869C20.6655 20.1875 22.4186 20.6429 24.2856 20.6429C26.1525 20.6429 27.8981 20.1875 29.4842 19.4286H30.1141C34.9409 19.4286 38.857 23.3446 38.857 28.1714V30.3571C38.857 32.3683 37.2253 34 35.2141 34H13.357C11.3458 34 9.71414 32.3683 9.71414 30.3571V28.1714C9.71414 23.3446 13.6302 19.4286 18.457 19.4286ZM35.4342 18.4116C36.3146 17.5388 37.5213 17 38.857 17H43.7141C46.3932 17 48.5713 19.1781 48.5713 21.8571V24.2857C48.5713 25.629 47.486 26.7143 46.1427 26.7143H41.1414C40.6633 23.117 38.4927 20.0888 35.4342 18.4116Z" fill="#2D45A7"/>
</svg>
