<svg width="53" height="40" viewBox="0 0 53 40" fill="none" xmlns="http://www.w3.org/2000/svg">
<path d="M50.8494 33.9H1.30406C0.583693 33.9 0.000231642 34.4835 0.000231642 35.2038V37.8115C0.000231642 38.5318 0.583693 39.1153 1.30406 39.1153H50.8494C51.5697 39.1153 52.1532 38.5318 52.1532 37.8115V35.2038C52.1532 34.4835 51.5697 33.9 50.8494 33.9ZM6.56417 25.2027C7.07592 25.7601 7.79465 26.0762 8.54679 26.0754L19.1844 26.0608C20.0239 26.0596 20.8513 25.8609 21.5997 25.4806L45.3097 13.4487C47.4888 12.3429 49.442 10.7645 50.7711 8.69709C52.2632 6.37629 52.4254 4.6968 51.8362 3.51032C51.2486 2.32302 49.8201 1.45109 47.0895 1.27345C44.657 1.11536 42.2376 1.75586 40.0586 2.86085L32.0311 6.93448L14.2095 0.247499C13.9952 0.103148 13.7462 0.0186526 13.4884 0.00275038C13.2305 -0.0131519 12.9731 0.0401159 12.7427 0.157046L7.38476 2.87633C6.51528 3.31719 6.30503 4.47759 6.96346 5.20121L19.6937 13.1953L11.2832 17.4637L5.38747 14.4918C5.18435 14.3894 4.95999 14.3362 4.73251 14.3364C4.50503 14.3367 4.28081 14.3905 4.07794 14.4934L0.807787 16.1533C-0.0429575 16.5852 -0.267052 17.7114 0.353894 18.4415L6.56417 25.2027Z" fill="#FBFBFE"/>
</svg>
