<svg width="44" height="46" viewBox="0 0 44 46" fill="none" xmlns="http://www.w3.org/2000/svg">
<path d="M1.0088 18.7112L20.3944 0.876462C21.0246 0.296668 21.8545 -0.017108 22.7106 0.000720154C23.5668 0.0185483 24.3829 0.3666 24.9884 0.972126L42.8175 18.8013L43.7324 19.7161V46H26.5518V29.6004H17.1806V46H2.28882e-05V19.6393L1.0088 18.7112ZM22.6434 3.1238C22.6159 3.1238 22.6329 3.12975 22.6447 3.14137C22.6569 3.12975 22.671 3.1238 22.6434 3.1238ZM3.12376 42.8763H14.0569V29.6004C14.0569 28.7719 14.386 27.9773 14.9718 27.3915C15.5576 26.8057 16.3521 26.4766 17.1806 26.4766H26.5518C27.3803 26.4766 28.1748 26.8057 28.7607 27.3915C29.3465 27.9773 29.6756 28.7719 29.6756 29.6004V42.8763H40.6087V21.0101L22.6434 3.18091C22.6422 3.17973 22.6421 3.17866 22.6411 3.17749L3.12376 21.0101V42.8763Z" fill="#2D45A7"/>
</svg>
