<svg width="43" height="40" viewBox="0 0 43 40" fill="none" xmlns="http://www.w3.org/2000/svg">
<path d="M22.5815 36.129C22.0682 36.129 21.5759 36.3329 21.2129 36.6959C20.8499 37.0589 20.646 37.5512 20.646 38.0645C20.646 38.5778 20.8499 39.0701 21.2129 39.4331C21.5759 39.7961 22.0682 40 22.5815 40H38.0653C39.2631 40 40.4118 39.5242 41.2587 38.6773C42.1057 37.8303 42.5815 36.6816 42.5815 35.4839V4.51613C42.5815 3.31838 42.1057 2.16968 41.2587 1.32274C40.4118 0.475805 39.2631 0 38.0653 0H22.5815C22.0682 0 21.5759 0.203916 21.2129 0.56689C20.8499 0.929863 20.646 1.42216 20.646 1.93548C20.646 2.44881 20.8499 2.9411 21.2129 3.30408C21.5759 3.66705 22.0682 3.87097 22.5815 3.87097H38.0653C38.2365 3.87097 38.4006 3.93894 38.5215 4.05993C38.6425 4.18092 38.7105 4.34502 38.7105 4.51613V35.4839C38.7105 35.655 38.6425 35.8191 38.5215 35.9401C38.4006 36.0611 38.2365 36.129 38.0653 36.129H22.5815Z" fill="#FBFBFE"/>
<path fill-rule="evenodd" clip-rule="evenodd" d="M29.041 26.1032C30.8216 26.1032 32.2668 24.6581 32.2668 22.8774V17.0968C32.2668 15.3161 30.8216 13.871 29.041 13.871H17.1365C17.1201 13.6817 17.1029 13.4924 17.0849 13.3032L16.9455 11.8684C16.8962 11.3616 16.7255 10.8742 16.4477 10.4475C16.17 10.0208 15.7934 9.6673 15.35 9.41709C14.9065 9.16688 14.4093 9.02729 13.9004 9.01017C13.3916 8.99304 12.8861 9.09888 12.4268 9.31871C8.20863 11.3399 4.38998 14.106 1.15455 17.4839L0.89907 17.7497C0.322109 18.3517 0 19.1533 0 19.9871C0 20.8209 0.322109 21.6225 0.89907 22.2245L1.15713 22.4903C4.39183 25.8679 8.20958 28.634 12.4268 30.6555C12.8861 30.8753 13.3916 30.9812 13.9004 30.964C14.4093 30.9469 14.9065 30.8073 15.35 30.5571C15.7934 30.3069 16.17 29.9534 16.4477 29.5267C16.7255 29.1 16.8962 28.6126 16.9455 28.1058L17.0849 26.671L17.1365 26.1032H29.041ZM15.3429 22.2323C14.8504 22.2326 14.3766 22.4208 14.0179 22.7583C13.6593 23.0959 13.4428 23.5575 13.4126 24.049C13.3636 24.7974 13.3042 25.5484 13.232 26.2968L13.1907 26.7148C9.82184 24.9783 6.75742 22.7062 4.11713 19.9871C6.7573 17.2679 9.82174 14.9957 13.1907 13.2594L13.232 13.6774C13.3042 14.4258 13.3636 15.1742 13.4126 15.9252C13.4428 16.4167 13.6593 16.8783 14.0179 17.2159C14.3766 17.5534 14.8504 17.7416 15.3429 17.7419H28.3958V22.2323H15.3429Z" fill="#FBFBFE"/>
</svg>
