<svg width="51" height="52" viewBox="0 0 51 52" fill="none" xmlns="http://www.w3.org/2000/svg">
<path fill-rule="evenodd" clip-rule="evenodd" d="M35.0731 13.4762L39.4044 7.14448C35.3997 7.38299 30.5565 8.32352 25.9095 9.66785C22.7519 10.5814 19.2353 10.4436 15.9659 9.84036C14.9362 9.65039 13.9218 9.41247 12.9397 9.14192L15.8817 13.473C21.8888 15.6904 29.0649 15.6915 35.0731 13.4762ZM14.3839 15.6296C21.2953 18.3734 29.6756 18.3725 36.5861 15.6271C39.3958 18.542 42.2981 22.1694 44.5343 25.9636C46.8722 29.9302 48.3479 33.8532 48.4449 37.2228C48.5367 40.4117 47.4164 43.1589 44.2605 45.2683C40.916 47.5036 35.0883 49.1467 25.5306 49.2391C15.9703 49.3316 10.1336 47.7998 6.77959 45.6314C3.62323 43.5908 2.48115 40.8731 2.55312 37.6663C2.62921 34.2764 4.08789 30.297 6.42071 26.2465C8.64769 22.3797 11.5507 18.6562 14.3839 15.6296ZM12.319 6.30044C13.6289 6.71274 15.0164 7.07209 16.4286 7.33264C19.4857 7.89671 22.5658 7.98061 25.2009 7.21831C28.5497 6.24952 32.0652 5.46449 35.3596 4.99944C32.5485 4.07398 29.1498 3.34309 25.5552 3.34309C20.3672 3.34309 15.5509 4.86536 12.319 6.30044ZM9.8773 4.63379C13.326 2.90635 19.1567 0.793091 25.5552 0.793091C31.8351 0.793091 37.5241 2.82879 40.958 4.53742C41.0157 4.56612 41.0727 4.59472 41.1291 4.62323C42.0543 5.09084 42.8063 5.53061 43.35 5.89309L38.1169 13.5431C50.1807 25.8758 64.5789 51.4119 25.5552 51.789C-13.4685 52.1661 0.677967 26.3474 12.8466 13.5431L7.65 5.89309C8.01363 5.6541 8.46855 5.38154 9.0043 5.08952C9.27511 4.94197 9.56645 4.78944 9.8773 4.63379Z" fill="#FBFBFE"/>
<path d="M23.3182 22.4681H27.682V24.5081H32.0458V28.5881H23.3182L23.1218 28.6044C22.8703 28.647 22.6427 28.7708 22.4789 28.9543C22.315 29.1376 22.2251 29.3691 22.2251 29.6081C22.2251 29.847 22.315 30.0786 22.4789 30.2619C22.6427 30.4454 22.8703 30.5692 23.1218 30.6118L23.3182 30.6281H27.682L28.0398 30.6383C29.455 30.722 30.7798 31.3177 31.7332 32.2991C32.6865 33.2805 33.1937 34.5704 33.1472 35.8955C33.1006 37.2206 32.5041 38.4766 31.4839 39.3973C30.4636 40.3182 29.1001 40.8314 27.682 40.8281V42.8681H23.3182V40.8281H18.9544V36.7481H27.682L27.8784 36.7318C28.1299 36.6892 28.3575 36.5654 28.5213 36.3819C28.6852 36.1986 28.7751 35.967 28.7751 35.7281C28.7751 35.4891 28.6852 35.2576 28.5213 35.0743C28.3575 34.8908 28.1299 34.767 27.8784 34.7244L27.682 34.7081H23.3182L22.9604 34.6979C21.5452 34.6141 20.2205 34.0184 19.267 33.0371C18.3137 32.0557 17.8065 30.7658 17.853 29.4407C17.8996 28.1156 18.4961 26.8596 19.5163 25.9389C20.5367 25.018 21.9001 24.5048 23.3182 24.5081V22.4681Z" fill="#FBFBFE"/>
</svg>
